<svg width="115" height="115" viewBox="0 0 115 115" fill="none" xmlns="http://www.w3.org/2000/svg">
<path d="M1 47.7016C6.2592 45.1635 7.86933 37.5332 13.4252 35.7395C17.4546 34.4395 21.6997 36.8669 24.9658 39.5588C28.2319 42.2506 31.471 45.4602 35.6595 46.0806C40.7245 46.8331 45.4713 43.5425 49.1743 40.0038C52.8746 36.4651 56.3942 32.3518 61.2624 30.7659C64.6175 29.6735 68.2827 29.9244 71.716 30.7443C75.7562 31.7072 80.2144 34.2588 80.4031 38.407C80.5461 41.5844 78.0109 44.2896 75.2356 45.8486C72.4631 47.4076 69.3777 48.357 66.6537 50.0023C63.3525 51.9955 61.1653 55.2403 59.1614 58.512C58.0637 60.3056 57.6456 62.2557 57.2788 64.2246C56.6316 67.6932 56.823 70.9353 58.1419 74.207C59.7439 78.18 61.5105 82.2339 64.6148 85.1846C67.8539 88.2621 72.2015 89.8184 76.1041 91.9923C80.0067 94.1663 83.8041 97.4811 84.357 101.915C85.1095 107.968 78.8173 113.295 72.7274 112.987C66.6375 112.68 61.4269 108.076 58.6543 102.644C55.8791 97.2114 55.0916 91.0159 54.3553 84.9607C53.565 78.4713 52.9825 71.8604 51.9603 65.4033C51.0406 59.5909 48.0739 54.5768 46.0916 49.4062C42.723 40.6268 42.1297 30.7632 42.313 21.3581C42.3319 20.3709 43.284 20.2117 44.2495 20.4113C45.8003 20.7323 46.1563 22.6959 47.2567 22.5745M47.2567 22.5745C48.972 30.7038 54.3175 21.8112 47.2567 22.5745ZM47.2567 22.5745C46.8656 20.7215 46.3936 18.7633 47.076 16.8699C47.5561 15.5348 48.7994 14.5719 50.2153 14.526C52.8854 14.4424 54.1584 17.4633 54.8138 19.9501C55.248 21.59 55.2075 23.2865 55.4718 24.9615C55.9357 27.8961 55.1239 28.9318 53.7484 28.9776C53.3466 28.9911 53.2792 28.2952 53.6648 28.4058C55.6714 28.9857 55.6148 25.2717 55.2318 22.2751C54.8407 19.2003 53.859 16.1417 54.8299 13.0291C55.186 11.8855 56.2108 11.0413 57.4083 11.044C59.3987 11.0494 59.9813 13.1963 60.3777 14.9306C60.7041 16.3574 61.1005 18.027 61.2947 19.6831C61.5105 21.5199 61.5401 21.8705 61.9717 23.2892C62.6918 25.6655 63.3256 26.5502 64.8467 26.2993C66.624 26.0053 66.233 24.7943 64.8683 25.1368C62.7322 25.6736 62.5461 22.0324 62.236 19.2731C61.9609 16.8241 61.6885 14.1188 62.2549 11.3353C62.5111 10.073 62.7134 8.68121 64.0322 8.06895C65.351 7.45668 66.7913 7.88014 67.746 8.89699C69.4586 10.7203 68.9947 13.2718 68.7951 15.6184C68.5335 18.6662 68.4958 19.7289 69.1727 22.3021C69.4613 23.4052 70.1464 24.4733 71.1335 25.0478C73.0322 26.1483 73.6147 25.2043 75.2464 24.6217C76.1203 24.3088 77.1937 24.209 77.9812 24.6001C78.4289 24.824 78.5017 25.4524 78.1349 25.7949C77.253 26.6203 75.918 26.9709 74.7583 26.596C73.4017 26.1591 72.6357 24.592 73.0295 23.2245C73.3558 22.089 73.4664 20.9049 73.3073 19.648C72.7166 15.0466 68.9462 10.9846 70.1949 6.36702C70.6723 4.59765 71.9938 3.14656 73.6983 2.48035C78.1565 0.735263 82.3747 4.00966 83.5101 8.03928C84.9234 13.0561 82.1131 18.3102 82.3531 23.5185C82.6093 29.0235 86.2557 34.0861 85.8323 39.5776C85.6354 42.1319 84.5647 44.527 83.5101 46.8628C81.9782 50.2585 80.4436 53.6543 78.9117 57.0501C76.8512 61.6138 71.5974 67.731 71.7187 72.737C71.8401 77.743 73.9195 82.0855 78.6851 83.6202C81.6788 84.5831 85.0555 83.4395 86.1074 82.7625C89.929 80.2973 91.0861 75.3506 92.5559 73.4032C97.5562 66.7654 109.833 63.2348 114 64.0628" stroke="white" stroke-width="3" stroke-miterlimit="10"/>
</svg>
