<svg width="66" height="66" viewBox="0 0 66 66" fill="none" xmlns="http://www.w3.org/2000/svg">
<path d="M42.2447 11.7062C45.2144 11.7062 48.0625 12.8859 50.1624 14.9858C52.2623 17.0857 53.442 19.9338 53.442 22.9035V42.2443C53.442 45.214 52.2623 48.062 50.1624 50.1619C48.0625 52.2618 45.2144 53.4415 42.2447 53.4415H22.9038C19.9341 53.4415 17.086 52.2618 14.9861 50.1619C12.8862 48.062 11.7065 45.214 11.7065 42.2443V22.9035C11.7065 19.9338 12.8862 17.0857 14.9861 14.9858C17.086 12.8859 19.9341 11.7062 22.9038 11.7062H42.2447ZM42.2447 7.63446H22.9038C18.8579 7.64654 14.9812 9.25912 12.1203 12.12C9.25943 14.9809 7.64685 18.8576 7.63477 22.9035V42.2443C7.64685 46.2901 9.25943 50.1669 12.1203 53.0277C14.9812 55.8886 18.8579 57.5012 22.9038 57.5133H42.2447C46.2906 57.5012 50.1673 55.8886 53.0282 53.0277C55.8891 50.1669 57.5017 46.2901 57.5137 42.2443V22.9035C57.5017 18.8576 55.8891 14.9809 53.0282 12.12C50.1673 9.25912 46.2906 7.64654 42.2447 7.63446Z" fill="#60785E"/>
<path d="M45.8783 16.2869C45.3015 16.2869 44.7376 16.458 44.258 16.7784C43.7784 17.0989 43.4046 17.5544 43.1839 18.0873C42.9632 18.6202 42.9054 19.2065 43.018 19.7723C43.1305 20.338 43.4082 20.8576 43.8161 21.2655C44.224 21.6734 44.7436 21.9511 45.3093 22.0637C45.8751 22.1762 46.4615 22.1184 46.9944 21.8977C47.5273 21.677 47.9827 21.3032 48.3032 20.8236C48.6237 20.344 48.7947 19.7801 48.7947 19.2033C48.7947 18.8203 48.7193 18.4411 48.5727 18.0873C48.4261 17.7334 48.2113 17.4119 47.9405 17.1411C47.6697 16.8703 47.3482 16.6555 46.9944 16.5089C46.6405 16.3624 46.2613 16.2869 45.8783 16.2869Z" fill="#60785E"/>
<path d="M32.7114 23.6517C34.4916 23.6507 36.2321 24.1777 37.7126 25.1661C39.1932 26.1545 40.3474 27.5598 41.0291 29.2043C41.7108 30.8487 41.8894 32.6585 41.5424 34.4045C41.1953 36.1505 40.3382 37.7544 39.0794 39.0131C37.8206 40.2719 36.2168 41.129 34.4708 41.4761C32.7247 41.8231 30.915 41.6445 29.2705 40.9628C27.626 40.2811 26.2207 39.1269 25.2323 37.6464C24.2439 36.1658 23.7169 34.4253 23.7179 32.6451C23.7219 30.2611 24.6708 27.976 26.3565 26.2902C28.0422 24.6045 30.3274 23.6557 32.7114 23.6517ZM32.7114 19.5799C30.1272 19.585 27.6025 20.3559 25.4563 21.7954C23.3102 23.2348 21.6389 25.2782 20.6537 27.6672C19.6684 30.0562 19.4135 32.6837 19.9211 35.2175C20.4287 37.7514 21.6761 40.0779 23.5055 41.903C25.3349 43.7282 27.6644 44.9701 30.1994 45.4718C32.7344 45.9735 35.3613 45.7124 37.748 44.7217C40.1347 43.7309 42.1742 42.0548 43.6086 39.9053C45.0431 37.7558 45.8082 35.2293 45.8072 32.6451C45.8065 30.927 45.4671 29.2258 44.8083 27.639C44.1496 26.0522 43.1845 24.6108 41.9682 23.3973C40.7518 22.1838 39.3082 21.2221 37.7198 20.567C36.1314 19.912 34.4295 19.5766 32.7114 19.5799Z" fill="#60785E"/>
</svg>
